<mxfile host="app.diagrams.net" modified="2024-01-04T13:03:04.817Z" agent="Mozilla/5.0 (Windows NT 10.0; Win64; x64) AppleWebKit/537.36 (KHTML, like Gecko) Chrome/120.0.0.0 Safari/537.36" version="22.1.16" etag="Nlx7Aom-FzpC68gjs2Xp" type="device">
  <diagram id="0xQtsalgb5Hy4gMD8fiz" name="Sayfa -1">
    <mxGraphModel dx="922" dy="651" grid="1" gridSize="10" guides="1" tooltips="1" connect="1" arrows="1" fold="1" page="0" pageScale="1" pageWidth="827" pageHeight="1169" background="none" math="0" shadow="0">
      <root>
        <mxCell id="0" />
        <mxCell id="1" parent="0" />
        <mxCell id="node0" value="&lt;p style=&quot;margin:0px;margin-top:4px;text-align:center;&quot;&gt;&lt;b&gt;LaboratorySection&lt;/b&gt;&lt;/p&gt;&lt;hr size=&quot;1&quot;&gt;&lt;p style=&quot;margin:0 0 0 4px;line-height:1.6;&quot;&gt; __capacity: Integer&lt;br&gt; __assistant: Assistant&lt;br&gt; __numberOfStudents: Integer&lt;br&gt; __day: String&lt;br&gt; __hour: Integer&lt;br&gt; __laboratorySectionCode: String&lt;/p&gt;&lt;hr size=&quot;1&quot;&gt;&lt;p style=&quot;margin:0 0 0 4px;line-height:1.6;&quot;&gt; __init__(self, laboratorySectionCode, capacity, hour, day): &lt;br&gt; getLaboratorySectionCode(self): &lt;br&gt; setAssistant(self, assistant): &lt;br&gt; getDay(self): &lt;br&gt; getHour(self): &lt;br&gt; getCapacity(self): &lt;br&gt; getNumberOfStudents(self): &lt;br&gt; setNumberOfStudents(self, numberOfStudents): &lt;/p&gt;" style="verticalAlign=top;align=left;overflow=fill;fontSize=14;fontFamily=Helvetica;html=1;rounded=0;shadow=0;comic=0;labelBackgroundColor=none;strokeWidth=1;" parent="1" vertex="1">
          <mxGeometry x="-199" y="226" width="401" height="376" as="geometry" />
        </mxCell>
      </root>
    </mxGraphModel>
  </diagram>
</mxfile>
